<svg width="1512" height="982" viewBox="0 0 1512 982" fill="none" xmlns="http://www.w3.org/2000/svg">
<g clip-path="url(#clip0_509_3329)">
<rect width="1512" height="982" fill="url(#paint0_linear_509_3329)"/>
<g filter="url(#filter0_df_509_3329)">
<circle cx="1424.51" cy="981.502" r="203.475" transform="rotate(156.624 1424.51 981.502)" fill="url(#paint1_linear_509_3329)"/>
<circle cx="1452.79" cy="901.783" r="61.3212" transform="rotate(-47.1643 1452.79 901.783)" fill="url(#paint2_linear_509_3329)"/>
<path d="M77.5 377.5C98.1267 396.624 67.9699 417.079 48.8455 437.706C29.7212 458.332 -6.52374 486.74 -27.1504 467.616C-47.7771 448.491 -78.7463 372.63 -59.6219 352.004C-40.4975 331.377 56.8733 358.376 77.5 377.5Z" fill="url(#paint3_linear_509_3329)" fill-opacity="0.8"/>
<circle cx="1317.03" cy="909.218" r="35.4534" transform="rotate(-47.1643 1317.03 909.218)" fill="url(#paint4_linear_509_3329)"/>
</g>
<g filter="url(#filter1_d_509_3329)">
<path d="M463.595 54.7344C461.691 48.5997 453.169 44.935 451.955 45.6196C451.482 48.4645 451.482 48.4645 451.009 51.3093C448.16 50.8642 448.16 50.8642 445.311 50.4192C444.879 51.7377 445.08 60.5986 450.542 64.6593C444.319 64.9483 437.747 71.4188 438.014 72.7757C440.578 74.0781 440.578 74.0781 443.141 75.3805C441.811 77.9486 441.811 77.9485 440.481 80.5166C441.602 81.3212 427.301 115.676 433 112.5C431.388 119.27 458.08 94.2378 459.46 94.3918C461.517 92.3519 461.517 92.3519 463.574 90.312C465.602 92.3442 465.602 92.3442 467.629 94.3764C468.753 93.5552 472.738 85.3095 471.68 79.9247C477.787 84.4583 486.04 81.8159 486.626 80.5542C485.333 77.9911 485.333 77.9911 484.041 75.4279C486.624 74.1158 486.624 74.1158 489.13 72.7616C488.627 71.4074 483.566 64.5709 477.211 63.3754C482.595 58.364 482.982 51.3129 481.964 50.3791C479.108 50.8349 479.108 50.8349 476.252 51.2907C475.821 48.4476 475.821 48.4476 475.39 45.6045C474.003 45.6147 465.61 48.6215 463.616 54.7635" fill="url(#paint5_linear_509_3329)"/>
</g>
</g>
<defs>
<filter id="filter0_df_509_3329" x="-109.614" y="300.594" width="1781.65" height="928.434" filterUnits="userSpaceOnUse" color-interpolation-filters="sRGB">
<feFlood flood-opacity="0" result="BackgroundImageFix"/>
<feColorMatrix in="SourceAlpha" type="matrix" values="0 0 0 0 0 0 0 0 0 0 0 0 0 0 0 0 0 0 127 0" result="hardAlpha"/>
<feOffset/>
<feGaussianBlur stdDeviation="22"/>
<feComposite in2="hardAlpha" operator="out"/>
<feColorMatrix type="matrix" values="0 0 0 0 0.933333 0 0 0 0 0.572549 0 0 0 0 0.427451 0 0 0 1 0"/>
<feBlend mode="normal" in2="BackgroundImageFix" result="effect1_dropShadow_509_3329"/>
<feBlend mode="normal" in="SourceGraphic" in2="effect1_dropShadow_509_3329" result="shape"/>
<feGaussianBlur stdDeviation="1.5" result="effect2_foregroundBlur_509_3329"/>
</filter>
<filter id="filter1_d_509_3329" x="387.653" y="1.53784" width="145.478" height="156.124" filterUnits="userSpaceOnUse" color-interpolation-filters="sRGB">
<feFlood flood-opacity="0" result="BackgroundImageFix"/>
<feColorMatrix in="SourceAlpha" type="matrix" values="0 0 0 0 0 0 0 0 0 0 0 0 0 0 0 0 0 0 127 0" result="hardAlpha"/>
<feOffset/>
<feGaussianBlur stdDeviation="22"/>
<feComposite in2="hardAlpha" operator="out"/>
<feColorMatrix type="matrix" values="0 0 0 0 0.929412 0 0 0 0 0.568627 0 0 0 0 0.427451 0 0 0 1 0"/>
<feBlend mode="normal" in2="BackgroundImageFix" result="effect1_dropShadow_509_3329"/>
<feBlend mode="normal" in="SourceGraphic" in2="effect1_dropShadow_509_3329" result="shape"/>
</filter>
<linearGradient id="paint0_linear_509_3329" x1="2324.5" y1="386.5" x2="-66" y2="366.5" gradientUnits="userSpaceOnUse">
<stop stop-color="white"/>
<stop offset="0.373277" stop-color="#FFF8F8"/>
</linearGradient>
<linearGradient id="paint1_linear_509_3329" x1="1554.89" y1="788.248" x2="1424.51" y2="1184.98" gradientUnits="userSpaceOnUse">
<stop stop-color="#EB555C"/>
<stop offset="1" stop-color="#EC926C"/>
</linearGradient>
<linearGradient id="paint2_linear_509_3329" x1="1492.08" y1="843.542" x2="1452.79" y2="963.104" gradientUnits="userSpaceOnUse">
<stop stop-color="#EB555C"/>
<stop offset="1" stop-color="#EC926C"/>
</linearGradient>
<linearGradient id="paint3_linear_509_3329" x1="446.153" y1="931.214" x2="496.783" y2="1022.66" gradientUnits="userSpaceOnUse">
<stop stop-color="#EB555C"/>
<stop offset="1" stop-color="#EC926C"/>
</linearGradient>
<linearGradient id="paint4_linear_509_3329" x1="1339.75" y1="875.545" x2="1317.03" y2="944.671" gradientUnits="userSpaceOnUse">
<stop stop-color="#EB555C"/>
<stop offset="1" stop-color="#EC926C"/>
</linearGradient>
<linearGradient id="paint5_linear_509_3329" x1="448.638" y1="48.0158" x2="477.168" y2="87.5114" gradientUnits="userSpaceOnUse">
<stop stop-color="#EE6A63"/>
<stop offset="1" stop-color="#ED916D"/>
</linearGradient>
<clipPath id="clip0_509_3329">
<rect width="1512" height="982" fill="white"/>
</clipPath>
</defs>
</svg>
