<svg width="29" height="29" viewBox="0 0 29 29" fill="none" xmlns="http://www.w3.org/2000/svg">
<path d="M11.0072 14.1129L0.796871 4.41539C0.472383 4.1072 0.310139 3.9531 0.201768 3.76586C0.142038 3.66266 0.0948263 3.55271 0.0611326 3.43833C0 3.23081 0 3.00705 0 2.55953C0 1.56845 0 1.07291 0.224965 0.709883C0.34699 0.512967 0.512967 0.34699 0.709883 0.224965C1.07291 0 1.56845 0 2.55953 0H26.4405C27.4315 0 27.9271 0 28.2901 0.224965C28.487 0.34699 28.653 0.512967 28.775 0.709883C29 1.07291 29 1.56845 29 2.55953C29 3.00705 29 3.23081 28.9389 3.43833C28.9052 3.55271 28.858 3.66266 28.7982 3.76586C28.6899 3.9531 28.5276 4.10719 28.2031 4.41539L17.9928 14.1129C17.5324 14.5502 17.3022 14.7688 17.1805 15.0522C17.0588 15.3357 17.0588 15.6531 17.0588 16.2881V24.4335C17.0588 24.9112 17.0588 25.1501 16.99 25.3695C16.952 25.4905 16.8988 25.6063 16.8316 25.714C16.71 25.909 16.5287 26.0646 16.1661 26.3756L16.1661 26.3756C14.6776 27.6525 13.9334 28.291 13.298 28.23C12.9611 28.1977 12.645 28.0524 12.4011 27.8178C11.9412 27.3752 11.9412 26.3946 11.9412 24.4335V16.2881C11.9412 15.6531 11.9412 15.3357 11.8195 15.0522C11.6978 14.7688 11.4676 14.5502 11.0072 14.1129Z" fill="#652C29"/>
</svg>
