<svg width="190" height="126" viewBox="0 0 190 126" fill="none" xmlns="http://www.w3.org/2000/svg">
<path d="M130.946 126H68.7931C34.1338 123.435 13.9364 103.342 0.809041 75.3886C0.351793 74.4149 0.761688 73.2559 1.724 72.7752L12.157 67.5637C12.6709 67.307 12.8634 66.6712 12.5782 66.1726L7.63566 57.5314C7.05299 56.5127 7.46789 55.2118 8.54254 54.7403C29.2738 45.6432 51.5906 43.3594 76.9828 68.7273C56.4706 35.624 74.4647 10.1134 85.5739 0.972449C86.2891 0.383881 87.3128 0.41833 88.0247 1.01101L95.9981 7.64914C96.3688 7.95778 96.907 7.95778 97.2778 7.64914L105.348 0.93022C106.014 0.375601 106.961 0.303823 107.664 0.811182C118.036 8.29831 132.685 30.937 116.293 68.7273C136.752 40.4262 167.293 47.8786 183.214 54.7957C184.248 55.2451 184.669 56.4702 184.164 57.4788L178.982 67.8323C178.735 68.3265 178.936 68.9258 179.437 69.1588C180.967 69.8703 183.924 71.1768 188.307 72.9547C189.265 73.3432 189.775 74.4048 189.457 75.3879C178.435 109.392 146.187 123.267 131.119 125.985C131.061 125.995 131.005 126 130.946 126Z" fill="#FFE0D3"/>
</svg>
