<svg width="48" height="48" viewBox="0 0 48 48" fill="none" xmlns="http://www.w3.org/2000/svg">
<g filter="url(#filter0_d_519_3727)">
<path d="M44 24.0001C44 35.0458 35.0457 44.0001 24 44.0001C12.9543 44.0001 4 35.0458 4 24.0001C4 12.9544 12.9543 4.00012 24 4.00012C35.0457 4.00012 44 12.9544 44 24.0001ZM8.25638 24.0001C8.25638 32.6951 15.305 39.7437 24 39.7437C32.695 39.7437 39.7436 32.6951 39.7436 24.0001C39.7436 15.3052 32.695 8.2565 24 8.2565C15.305 8.2565 8.25638 15.3052 8.25638 24.0001Z" fill="url(#paint0_linear_519_3727)"/>
<rect x="21.6001" y="18.8002" width="4.8" height="18" rx="2.4" fill="#ED6662"/>
<circle cx="24.0001" cy="14.8" r="2.4" fill="#ED6662"/>
</g>
<defs>
<filter id="filter0_d_519_3727" x="0" y="0.00012207" width="48" height="48" filterUnits="userSpaceOnUse" color-interpolation-filters="sRGB">
<feFlood flood-opacity="0" result="BackgroundImageFix"/>
<feColorMatrix in="SourceAlpha" type="matrix" values="0 0 0 0 0 0 0 0 0 0 0 0 0 0 0 0 0 0 127 0" result="hardAlpha"/>
<feOffset/>
<feGaussianBlur stdDeviation="2"/>
<feComposite in2="hardAlpha" operator="out"/>
<feColorMatrix type="matrix" values="0 0 0 0 0.929412 0 0 0 0 0.407843 0 0 0 0 0.384314 0 0 0 1 0"/>
<feBlend mode="normal" in2="BackgroundImageFix" result="effect1_dropShadow_519_3727"/>
<feBlend mode="normal" in="SourceGraphic" in2="effect1_dropShadow_519_3727" result="shape"/>
</filter>
<linearGradient id="paint0_linear_519_3727" x1="24" y1="4.00012" x2="24" y2="51.8789" gradientUnits="userSpaceOnUse">
<stop stop-color="#ED6662"/>
<stop offset="1" stop-color="#EE926D"/>
</linearGradient>
</defs>
</svg>
