<svg width="160" height="66" viewBox="0 0 160 66" fill="none" xmlns="http://www.w3.org/2000/svg">
<path d="M13.1672 17.7871L2.27946 28.7125C1.02055 29.9757 1.02055 32.0239 2.27946 33.2871L28.6139 59.7125C29.8728 60.9757 31.9139 60.9757 33.1728 59.7125L44.0606 48.7871C45.3195 47.5239 45.3195 45.4757 44.0606 44.2125L17.7261 17.7871C16.4672 16.5239 14.4261 16.5239 13.1672 17.7871Z" fill="#ED6A63"/>
<g filter="url(#filter0_d_530_4255)">
<path d="M29.4164 32.7939L18.1121 44.1371C16.8051 45.4487 16.24 47.0082 16.85 47.6203L29.6108 60.4251C30.2208 61.0372 31.7749 60.4702 33.082 59.1586L44.3862 47.8154C45.6932 46.5038 46.2583 44.9443 45.6483 44.3322L32.8876 31.5274C32.2775 30.9153 30.7234 31.4823 29.4164 32.7939Z" fill="#BD1923"/>
</g>
<path d="M74.9536 13.2128L64.0658 2.28745C62.8069 1.02419 60.7658 1.02419 59.5069 2.28745L17.7258 44.2128C16.4669 45.4761 16.4669 47.5242 17.7258 48.7875L28.6135 59.7128C29.8724 60.9761 31.9135 60.9761 33.1725 59.7128L74.9536 17.7874C76.2125 16.5242 76.2125 14.4761 74.9536 13.2128Z" fill="url(#paint0_linear_530_4255)"/>
<path d="M75.4616 48.7564H81.0616V52.0564H71.1866V34.5064H75.4616V48.7564ZM85.2507 36.6564C84.5007 36.6564 83.884 36.4397 83.4007 36.0064C82.934 35.5564 82.7007 35.0064 82.7007 34.3564C82.7007 33.6897 82.934 33.1397 83.4007 32.7064C83.884 32.2564 84.5007 32.0314 85.2507 32.0314C85.984 32.0314 86.584 32.2564 87.0507 32.7064C87.534 33.1397 87.7757 33.6897 87.7757 34.3564C87.7757 35.0064 87.534 35.5564 87.0507 36.0064C86.584 36.4397 85.984 36.6564 85.2507 36.6564ZM87.3757 38.1064V52.0564H83.1007V38.1064H87.3757ZM96.1487 52.2564C94.932 52.2564 93.8487 52.0481 92.8987 51.6314C91.9487 51.2147 91.1987 50.6481 90.6487 49.9314C90.0987 49.1981 89.7904 48.3814 89.7237 47.4814H93.9487C93.9987 47.9647 94.2237 48.3564 94.6237 48.6564C95.0237 48.9564 95.5154 49.1064 96.0987 49.1064C96.632 49.1064 97.0404 49.0064 97.3237 48.8064C97.6237 48.5897 97.7737 48.3147 97.7737 47.9814C97.7737 47.5814 97.5654 47.2897 97.1487 47.1064C96.732 46.9064 96.057 46.6897 95.1237 46.4564C94.1237 46.2231 93.2904 45.9814 92.6237 45.7314C91.957 45.4647 91.382 45.0564 90.8987 44.5064C90.4154 43.9397 90.1737 43.1814 90.1737 42.2314C90.1737 41.4314 90.3904 40.7064 90.8237 40.0564C91.2737 39.3897 91.9237 38.8647 92.7737 38.4814C93.6404 38.0981 94.6654 37.9064 95.8487 37.9064C97.5987 37.9064 98.9737 38.3397 99.9737 39.2064C100.99 40.0731 101.574 41.2231 101.724 42.6564H97.7737C97.707 42.1731 97.4904 41.7897 97.1237 41.5064C96.7737 41.2231 96.307 41.0814 95.7237 41.0814C95.2237 41.0814 94.8404 41.1814 94.5737 41.3814C94.307 41.5647 94.1737 41.8231 94.1737 42.1564C94.1737 42.5564 94.382 42.8564 94.7987 43.0564C95.232 43.2564 95.8987 43.4564 96.7987 43.6564C97.832 43.9231 98.6737 44.1897 99.3237 44.4564C99.9737 44.7064 100.54 45.1231 101.024 45.7064C101.524 46.2731 101.782 47.0397 101.799 48.0064C101.799 48.8231 101.565 49.5564 101.099 50.2064C100.649 50.8397 99.9904 51.3397 99.1237 51.7064C98.2737 52.0731 97.282 52.2564 96.1487 52.2564ZM112.189 48.4314V52.0564H110.014C108.464 52.0564 107.256 51.6814 106.389 50.9314C105.522 50.1647 105.089 48.9231 105.089 47.2064V41.6564H103.389V38.1064H105.089V34.7064H109.364V38.1064H112.164V41.6564H109.364V47.2564C109.364 47.6731 109.464 47.9731 109.664 48.1564C109.864 48.3397 110.197 48.4314 110.664 48.4314H112.189ZM116.72 36.6564C115.97 36.6564 115.354 36.4397 114.87 36.0064C114.404 35.5564 114.17 35.0064 114.17 34.3564C114.17 33.6897 114.404 33.1397 114.87 32.7064C115.354 32.2564 115.97 32.0314 116.72 32.0314C117.454 32.0314 118.054 32.2564 118.52 32.7064C119.004 33.1397 119.245 33.6897 119.245 34.3564C119.245 35.0064 119.004 35.5564 118.52 36.0064C118.054 36.4397 117.454 36.6564 116.72 36.6564ZM118.845 38.1064V52.0564H114.57V38.1064H118.845ZM128.943 41.6564H126.643V52.0564H122.368V41.6564H120.818V38.1064H122.368V37.7064C122.368 35.9897 122.86 34.6897 123.843 33.8064C124.827 32.9064 126.268 32.4564 128.168 32.4564C128.485 32.4564 128.718 32.4647 128.868 32.4814V36.1064C128.052 36.0564 127.477 36.1731 127.143 36.4564C126.81 36.7397 126.643 37.2481 126.643 37.9814V38.1064H128.943V41.6564ZM145.202 38.1064L136.452 58.6814H131.852L135.052 51.5814L129.377 38.1064H134.152L137.377 46.8314L140.577 38.1064H145.202ZM148.748 52.2564C147.998 52.2564 147.381 52.0397 146.898 51.6064C146.431 51.1564 146.198 50.6064 146.198 49.9564C146.198 49.2897 146.431 48.7314 146.898 48.2814C147.381 47.8314 147.998 47.6064 148.748 47.6064C149.481 47.6064 150.081 47.8314 150.548 48.2814C151.031 48.7314 151.273 49.2897 151.273 49.9564C151.273 50.6064 151.031 51.1564 150.548 51.6064C150.081 52.0397 149.481 52.2564 148.748 52.2564Z" fill="#652C29"/>
<defs>
<filter id="filter0_d_530_4255" x="11.6044" y="26.2809" width="39.2896" height="39.3907" filterUnits="userSpaceOnUse" color-interpolation-filters="sRGB">
<feFlood flood-opacity="0" result="BackgroundImageFix"/>
<feColorMatrix in="SourceAlpha" type="matrix" values="0 0 0 0 0 0 0 0 0 0 0 0 0 0 0 0 0 0 127 0" result="hardAlpha"/>
<feOffset/>
<feGaussianBlur stdDeviation="2.5"/>
<feComposite in2="hardAlpha" operator="out"/>
<feColorMatrix type="matrix" values="0 0 0 0 0 0 0 0 0 0 0 0 0 0 0 0 0 0 0.25 0"/>
<feBlend mode="normal" in2="BackgroundImageFix" result="effect1_dropShadow_530_4255"/>
<feBlend mode="normal" in="SourceGraphic" in2="effect1_dropShadow_530_4255" result="shape"/>
</filter>
<linearGradient id="paint0_linear_530_4255" x1="23.1696" y1="54.2501" x2="69.6693" y2="7.91033" gradientUnits="userSpaceOnUse">
<stop stop-color="#ED6461"/>
<stop offset="0.994" stop-color="#EE926D"/>
</linearGradient>
</defs>
</svg>
